{
	"asset":{
		"generator":"Khronos glTF Blender I/O v3.6.28",
		"version":"2.0"
	},
	"extensionsUsed":[
		"KHR_materials_specular",
		"KHR_materials_ior"
	],
	"scene":0,
	"scenes":[
		{
			"name":"Scene",
			"nodes":[
				8
			]
		}
	],
	"nodes":[
		{
			"mesh":0,
			"name":"ascher",
			"rotation":[
				0.22458229959011078,
				0,
				0,
				0.9744551181793213
			],
			"translation":[
				-2.4349632263183594,
				1.6499165296554565,
				0.9928407669067383
			]
		},
		{
			"mesh":1,
			"name":"cd",
			"rotation":[
				-0.4608891010284424,
				0,
				0,
				0.8874577283859253
			],
			"translation":[
				-2.3054230213165283,
				0.9833099246025085,
				1.1501109600067139
			]
		},
		{
			"mesh":2,
			"name":"cd.001",
			"rotation":[
				0.32761895656585693,
				0,
				0,
				0.9448099732398987
			],
			"translation":[
				2.381922721862793,
				2.1793689727783203,
				1.2026877403259277
			]
		},
		{
			"mesh":3,
			"name":"cover",
			"rotation":[
				-0.4226182699203491,
				0,
				0,
				0.9063078165054321
			],
			"translation":[
				2.226083993911743,
				2.26851749420166,
				1.2199344635009766
			]
		},
		{
			"mesh":4,
			"name":"gomboc",
			"rotation":[
				-0.5735764503479004,
				0,
				0,
				0.8191519975662231
			],
			"translation":[
				-0.5902742743492126,
				2.225947856903076,
				0.9961268901824951
			]
		},
		{
			"mesh":5,
			"name":"gomboc.001",
			"rotation":[
				0.20406685769557953,
				0,
				0,
				0.9789570569992065
			],
			"translation":[
				0.9385374188423157,
				2.225947856903076,
				0.9961268901824951
			]
		},
		{
			"mesh":6,
			"name":"Plane.002",
			"rotation":[
				0.22458229959011078,
				0,
				0,
				0.9744551181793213
			],
			"translation":[
				-1.9512219429016113,
				1.5387917757034302,
				1.1615283489227295
			]
		},
		{
			"mesh":7,
			"name":"shlab",
			"rotation":[
				0.14605428278446198,
				-0.6918584704399109,
				-0.14605429768562317,
				0.6918585300445557
			],
			"translation":[
				-2.1626174449920654,
				2.188383102416992,
				1.0489578247070312
			]
		},
		{
			"children":[
				0,
				1,
				2,
				3,
				4,
				5,
				6,
				7
			],
			"mesh":8,
			"name":"room"
		}
	],
	"materials":[
		{
			"doubleSided":true,
			"extensions":{
				"KHR_materials_specular":{
					"specularColorFactor":[
						0,
						0,
						0
					]
				},
				"KHR_materials_ior":{
					"ior":1.4500000476837158
				}
			},
			"name":"arbeitstex",
			"pbrMetallicRoughness":{
				"baseColorTexture":{
					"index":0
				},
				"metallicFactor":0
			}
		},
		{
			"doubleSided":true,
			"extensions":{
				"KHR_materials_specular":{
					"specularColorFactor":[
						0.2291647978203437,
						0.2291647978203437,
						0.2291647978203437
					]
				},
				"KHR_materials_ior":{
					"ior":1.4500000476837158
				}
			},
			"name":"kiosk",
			"pbrMetallicRoughness":{
				"baseColorTexture":{
					"index":1
				},
				"metallicFactor":0
			}
		},
		{
			"doubleSided":true,
			"extensions":{
				"KHR_materials_specular":{
					"specularColorFactor":[
						0.14945523225434698,
						0.14945523225434698,
						0.14945523225434698
					]
				},
				"KHR_materials_ior":{
					"ior":1.4500000476837158
				}
			},
			"name":"tiles",
			"pbrMetallicRoughness":{
				"baseColorFactor":[
					0.5,
					0.5,
					0.5,
					1
				],
				"baseColorTexture":{
					"index":2
				},
				"metallicFactor":0,
				"roughnessFactor":0.9033613204956055
			}
		},
		{
			"doubleSided":true,
			"name":"metal",
			"pbrMetallicRoughness":{
				"baseColorTexture":{
					"index":3
				},
				"metallicFactor":0,
				"roughnessFactor":0.5
			}
		},
		{
			"alphaMode":"BLEND",
			"doubleSided":true,
			"emissiveFactor":[
				0.42935624718666077,
				1,
				0.41678187251091003
			],
			"name":"glow",
			"pbrMetallicRoughness":{
				"baseColorFactor":[
					0.800000011920929,
					0.800000011920929,
					0.800000011920929,
					1
				],
				"baseColorTexture":{
					"index":4
				},
				"metallicFactor":0,
				"roughnessFactor":0.5
			}
		},
		{
			"alphaCutoff":0.5,
			"alphaMode":"MASK",
			"doubleSided":true,
			"extensions":{
				"KHR_materials_specular":{
					"specularColorFactor":[
						0,
						0,
						0
					]
				},
				"KHR_materials_ior":{
					"ior":1.4500000476837158
				}
			},
			"name":"plants",
			"pbrMetallicRoughness":{
				"baseColorTexture":{
					"index":5
				},
				"metallicFactor":0
			}
		},
		{
			"doubleSided":true,
			"emissiveFactor":[
				1,
				1,
				1
			],
			"name":"Material.001",
			"pbrMetallicRoughness":{
				"baseColorFactor":[
					0,
					0,
					0,
					1
				]
			}
		},
		{
			"extensions":{
				"KHR_materials_specular":{
					"specularColorFactor":[
						0,
						0,
						0
					]
				}
			},
			"name":"koffertextur",
			"pbrMetallicRoughness":{
				"baseColorTexture":{
					"index":6
				},
				"metallicFactor":0,
				"roughnessFactor":0.5
			}
		}
	],
	"meshes":[
		{
			"name":"Plane.001",
			"primitives":[
				{
					"attributes":{
						"POSITION":0,
						"NORMAL":1,
						"TEXCOORD_0":2
					},
					"indices":3,
					"material":0
				}
			]
		},
		{
			"name":"Circle.001",
			"primitives":[
				{
					"attributes":{
						"POSITION":4,
						"NORMAL":5,
						"TEXCOORD_0":6
					},
					"indices":7,
					"material":0
				}
			]
		},
		{
			"name":"Plane.004",
			"primitives":[
				{
					"attributes":{
						"POSITION":8,
						"NORMAL":9,
						"TEXCOORD_0":10
					},
					"indices":11,
					"material":0
				}
			]
		},
		{
			"name":"Plane.003",
			"primitives":[
				{
					"attributes":{
						"POSITION":12,
						"NORMAL":13,
						"TEXCOORD_0":14
					},
					"indices":15,
					"material":0
				}
			]
		},
		{
			"name":"Plane.005",
			"primitives":[
				{
					"attributes":{
						"POSITION":16,
						"NORMAL":17,
						"TEXCOORD_0":18
					},
					"indices":19,
					"material":0
				}
			]
		},
		{
			"name":"Plane.006",
			"primitives":[
				{
					"attributes":{
						"POSITION":20,
						"NORMAL":21,
						"TEXCOORD_0":22
					},
					"indices":23,
					"material":0
				}
			]
		},
		{
			"name":"Plane.002",
			"primitives":[
				{
					"attributes":{
						"POSITION":24,
						"NORMAL":25,
						"TEXCOORD_0":26
					},
					"indices":27,
					"material":0
				}
			]
		},
		{
			"name":"Plane",
			"primitives":[
				{
					"attributes":{
						"POSITION":28,
						"NORMAL":29,
						"TEXCOORD_0":30
					},
					"indices":31,
					"material":0
				}
			]
		},
		{
			"name":"Cube.003",
			"primitives":[
				{
					"attributes":{
						"COLOR_0":32,
						"POSITION":33,
						"NORMAL":34,
						"TEXCOORD_0":35
					},
					"indices":36,
					"material":1
				},
				{
					"attributes":{
						"COLOR_0":37,
						"POSITION":38,
						"NORMAL":39,
						"TEXCOORD_0":40
					},
					"indices":41,
					"material":0
				},
				{
					"attributes":{
						"COLOR_0":42,
						"POSITION":43,
						"NORMAL":44,
						"TEXCOORD_0":45
					},
					"indices":46,
					"material":2
				},
				{
					"attributes":{
						"COLOR_0":47,
						"POSITION":48,
						"NORMAL":49,
						"TEXCOORD_0":50
					},
					"indices":51,
					"material":3
				},
				{
					"attributes":{
						"COLOR_0":52,
						"POSITION":53,
						"NORMAL":54,
						"TEXCOORD_0":55
					},
					"indices":56,
					"material":4
				},
				{
					"attributes":{
						"COLOR_0":57,
						"POSITION":58,
						"NORMAL":59,
						"TEXCOORD_0":60
					},
					"indices":61,
					"material":5
				},
				{
					"attributes":{
						"COLOR_0":62,
						"POSITION":63,
						"NORMAL":64,
						"TEXCOORD_0":65
					},
					"indices":66,
					"material":6
				},
				{
					"attributes":{
						"COLOR_0":67,
						"POSITION":68,
						"NORMAL":69,
						"TEXCOORD_0":70
					},
					"indices":71,
					"material":7
				}
			]
		}
	],
	"textures":[
		{
			"sampler":0,
			"source":0
		},
		{
			"sampler":0,
			"source":1
		},
		{
			"sampler":0,
			"source":2
		},
		{
			"sampler":0,
			"source":3
		},
		{
			"sampler":0,
			"source":4
		},
		{
			"sampler":0,
			"source":5
		},
		{
			"sampler":1,
			"source":6
		}
	],
	"images":[
		{
			"bufferView":4,
			"mimeType":"image/png",
			"name":"arbeitstex"
		},
		{
			"bufferView":38,
			"mimeType":"image/png",
			"name":"kiosktex"
		},
		{
			"bufferView":49,
			"mimeType":"image/png",
			"name":"tiles0"
		},
		{
			"bufferView":55,
			"mimeType":"image/png",
			"name":"metalleude"
		},
		{
			"bufferView":61,
			"mimeType":"image/png",
			"name":"glow"
		},
		{
			"bufferView":67,
			"mimeType":"image/png",
			"name":"plant"
		},
		{
			"bufferView":78,
			"mimeType":"image/png",
			"name":"koffertextur"
		}
	],
	"accessors":[
		{
			"bufferView":0,
			"componentType":5126,
			"count":584,
			"max":[
				0.2850021719932556,
				0.08920198678970337,
				0.2850021421909332
			],
			"min":[
				-0.28500211238861084,
				-0.006396404933184385,
				-0.2850021421909332
			],
			"type":"VEC3"
		},
		{
			"bufferView":1,
			"componentType":5126,
			"count":584,
			"type":"VEC3"
		},
		{
			"bufferView":2,
			"componentType":5126,
			"count":584,
			"type":"VEC2"
		},
		{
			"bufferView":3,
			"componentType":5123,
			"count":1608,
			"type":"SCALAR"
		},
		{
			"bufferView":5,
			"componentType":5126,
			"count":144,
			"max":[
				0.26725098490715027,
				0.26725104451179504,
				0.0109019186347723
			],
			"min":[
				-0.26725098490715027,
				-0.2672508955001831,
				3.1858800042527946e-08
			],
			"type":"VEC3"
		},
		{
			"bufferView":6,
			"componentType":5126,
			"count":144,
			"type":"VEC3"
		},
		{
			"bufferView":7,
			"componentType":5126,
			"count":144,
			"type":"VEC2"
		},
		{
			"bufferView":8,
			"componentType":5123,
			"count":288,
			"type":"SCALAR"
		},
		{
			"bufferView":9,
			"componentType":5126,
			"count":24,
			"max":[
				0.23693029582500458,
				0.02518179826438427,
				0.21539117395877838
			],
			"min":[
				-0.23693029582500458,
				0,
				-0.21539117395877838
			],
			"type":"VEC3"
		},
		{
			"bufferView":10,
			"componentType":5126,
			"count":24,
			"type":"VEC3"
		},
		{
			"bufferView":11,
			"componentType":5126,
			"count":24,
			"type":"VEC2"
		},
		{
			"bufferView":12,
			"componentType":5123,
			"count":36,
			"type":"SCALAR"
		},
		{
			"bufferView":13,
			"componentType":5126,
			"count":24,
			"max":[
				0.23693028092384338,
				0.2279820591211319,
				0.012590929865837097
			],
			"min":[
				-0.23693028092384338,
				-0.20280028879642487,
				-0.01259090006351471
			],
			"type":"VEC3"
		},
		{
			"bufferView":14,
			"componentType":5126,
			"count":24,
			"type":"VEC3"
		},
		{
			"bufferView":15,
			"componentType":5126,
			"count":24,
			"type":"VEC2"
		},
		{
			"bufferView":16,
			"componentType":5123,
			"count":36,
			"type":"SCALAR"
		},
		{
			"bufferView":17,
			"componentType":5126,
			"count":24,
			"max":[
				0.6933885216712952,
				0.518805980682373,
				0.040450841188430786
			],
			"min":[
				-0.6933884620666504,
				-0.43999379873275757,
				-0.04045078158378601
			],
			"type":"VEC3"
		},
		{
			"bufferView":18,
			"componentType":5126,
			"count":24,
			"type":"VEC3"
		},
		{
			"bufferView":19,
			"componentType":5126,
			"count":24,
			"type":"VEC2"
		},
		{
			"bufferView":20,
			"componentType":5123,
			"count":36,
			"type":"SCALAR"
		},
		{
			"bufferView":21,
			"componentType":5126,
			"count":24,
			"max":[
				0.6933885812759399,
				0.07985694706439972,
				0.47939980030059814
			],
			"min":[
				-0.6933885216712952,
				-0.001044697710312903,
				-0.47940000891685486
			],
			"type":"VEC3"
		},
		{
			"bufferView":22,
			"componentType":5126,
			"count":24,
			"type":"VEC3"
		},
		{
			"bufferView":23,
			"componentType":5126,
			"count":24,
			"type":"VEC2"
		},
		{
			"bufferView":24,
			"componentType":5123,
			"count":36,
			"type":"SCALAR"
		},
		{
			"bufferView":25,
			"componentType":5126,
			"count":584,
			"max":[
				0.2850021719932556,
				0.08920198678970337,
				0.2850021421909332
			],
			"min":[
				-0.28500211238861084,
				-0.006396404933184385,
				-0.2850021421909332
			],
			"type":"VEC3"
		},
		{
			"bufferView":26,
			"componentType":5126,
			"count":584,
			"type":"VEC3"
		},
		{
			"bufferView":27,
			"componentType":5126,
			"count":584,
			"type":"VEC2"
		},
		{
			"bufferView":28,
			"componentType":5123,
			"count":1608,
			"type":"SCALAR"
		},
		{
			"bufferView":29,
			"componentType":5126,
			"count":220,
			"max":[
				0.40323469042778015,
				0.20603790879249573,
				0.44440945982933044
			],
			"min":[
				-0.4482788145542145,
				0,
				-0.44440945982933044
			],
			"type":"VEC3"
		},
		{
			"bufferView":30,
			"componentType":5126,
			"count":220,
			"type":"VEC3"
		},
		{
			"bufferView":31,
			"componentType":5126,
			"count":220,
			"type":"VEC2"
		},
		{
			"bufferView":32,
			"componentType":5123,
			"count":528,
			"type":"SCALAR"
		},
		{
			"bufferView":33,
			"componentType":5126,
			"count":1034,
			"type":"VEC4"
		},
		{
			"bufferView":34,
			"componentType":5126,
			"count":1034,
			"max":[
				2.7683417797088623,
				8.09226131439209,
				6.972811698913574
			],
			"min":[
				-2.7683417797088623,
				0,
				-7.504446506500244
			],
			"type":"VEC3"
		},
		{
			"bufferView":35,
			"componentType":5126,
			"count":1034,
			"type":"VEC3"
		},
		{
			"bufferView":36,
			"componentType":5126,
			"count":1034,
			"type":"VEC2"
		},
		{
			"bufferView":37,
			"componentType":5123,
			"count":1902,
			"type":"SCALAR"
		},
		{
			"bufferView":39,
			"componentType":5126,
			"count":32,
			"type":"VEC4"
		},
		{
			"bufferView":40,
			"componentType":5126,
			"count":32,
			"max":[
				2.7398152351379395,
				6.577172756195068,
				1.7880122661590576
			],
			"min":[
				-0.981293797492981,
				2.704263210296631,
				-3.7380738258361816
			],
			"type":"VEC3"
		},
		{
			"bufferView":41,
			"componentType":5126,
			"count":32,
			"type":"VEC3"
		},
		{
			"bufferView":42,
			"componentType":5126,
			"count":32,
			"type":"VEC2"
		},
		{
			"bufferView":43,
			"componentType":5123,
			"count":48,
			"type":"SCALAR"
		},
		{
			"bufferView":44,
			"componentType":5126,
			"count":64,
			"type":"VEC4"
		},
		{
			"bufferView":45,
			"componentType":5126,
			"count":64,
			"max":[
				2.7683417797088623,
				2.5951666831970215,
				6.015388488769531
			],
			"min":[
				-2.7683417797088623,
				-0.12171891331672668,
				-4
			],
			"type":"VEC3"
		},
		{
			"bufferView":46,
			"componentType":5126,
			"count":64,
			"type":"VEC3"
		},
		{
			"bufferView":47,
			"componentType":5126,
			"count":64,
			"type":"VEC2"
		},
		{
			"bufferView":48,
			"componentType":5123,
			"count":144,
			"type":"SCALAR"
		},
		{
			"bufferView":50,
			"componentType":5126,
			"count":540,
			"type":"VEC4"
		},
		{
			"bufferView":51,
			"componentType":5126,
			"count":540,
			"max":[
				2.7605838775634766,
				5.6781535148620605,
				-3.2607436180114746
			],
			"min":[
				-2.791067361831665,
				-0.334261417388916,
				-3.8122353553771973
			],
			"type":"VEC3"
		},
		{
			"bufferView":52,
			"componentType":5126,
			"count":540,
			"type":"VEC3"
		},
		{
			"bufferView":53,
			"componentType":5126,
			"count":540,
			"type":"VEC2"
		},
		{
			"bufferView":54,
			"componentType":5123,
			"count":1002,
			"type":"SCALAR"
		},
		{
			"bufferView":56,
			"componentType":5126,
			"count":26,
			"type":"VEC4"
		},
		{
			"bufferView":57,
			"componentType":5126,
			"count":26,
			"max":[
				2.687516689300537,
				7.867610454559326,
				1.7270727157592773
			],
			"min":[
				-2.6225645542144775,
				4.2786407470703125,
				-5.54946231842041
			],
			"type":"VEC3"
		},
		{
			"bufferView":58,
			"componentType":5126,
			"count":26,
			"type":"VEC3"
		},
		{
			"bufferView":59,
			"componentType":5126,
			"count":26,
			"type":"VEC2"
		},
		{
			"bufferView":60,
			"componentType":5123,
			"count":36,
			"type":"SCALAR"
		},
		{
			"bufferView":62,
			"componentType":5126,
			"count":32,
			"type":"VEC4"
		},
		{
			"bufferView":63,
			"componentType":5126,
			"count":32,
			"max":[
				2.396707773208618,
				4.613755226135254,
				0.6405611038208008
			],
			"min":[
				1.6914581060409546,
				2.6031298637390137,
				-0.06468859314918518
			],
			"type":"VEC3"
		},
		{
			"bufferView":64,
			"componentType":5126,
			"count":32,
			"type":"VEC3"
		},
		{
			"bufferView":65,
			"componentType":5126,
			"count":32,
			"type":"VEC2"
		},
		{
			"bufferView":66,
			"componentType":5123,
			"count":78,
			"type":"SCALAR"
		},
		{
			"bufferView":68,
			"componentType":5126,
			"count":8,
			"type":"VEC4"
		},
		{
			"bufferView":69,
			"componentType":5126,
			"count":8,
			"max":[
				2.2933661937713623,
				7.871026992797852,
				1.6228654384613037
			],
			"min":[
				-2.2284140586853027,
				7.871026992797852,
				0.8077906966209412
			],
			"type":"VEC3"
		},
		{
			"bufferView":70,
			"componentType":5126,
			"count":8,
			"type":"VEC3"
		},
		{
			"bufferView":71,
			"componentType":5126,
			"count":8,
			"type":"VEC2"
		},
		{
			"bufferView":72,
			"componentType":5123,
			"count":12,
			"type":"SCALAR"
		},
		{
			"bufferView":73,
			"componentType":5126,
			"count":1546,
			"type":"VEC4"
		},
		{
			"bufferView":74,
			"componentType":5126,
			"count":1546,
			"max":[
				-1.1126657724380493,
				6.713425159454346,
				-3.2153940200805664
			],
			"min":[
				-2.507518768310547,
				5.676235675811768,
				-3.779829263687134
			],
			"type":"VEC3"
		},
		{
			"bufferView":75,
			"componentType":5126,
			"count":1546,
			"type":"VEC3"
		},
		{
			"bufferView":76,
			"componentType":5126,
			"count":1546,
			"type":"VEC2"
		},
		{
			"bufferView":77,
			"componentType":5123,
			"count":1908,
			"type":"SCALAR"
		}
	],
	"bufferViews":[
		{
			"buffer":0,
			"byteLength":7008,
			"byteOffset":0,
			"target":34962
		},
		{
			"buffer":0,
			"byteLength":7008,
			"byteOffset":7008,
			"target":34962
		},
		{
			"buffer":0,
			"byteLength":4672,
			"byteOffset":14016,
			"target":34962
		},
		{
			"buffer":0,
			"byteLength":3216,
			"byteOffset":18688,
			"target":34963
		},
		{
			"buffer":0,
			"byteLength":219959,
			"byteOffset":21904
		},
		{
			"buffer":0,
			"byteLength":1728,
			"byteOffset":241864,
			"target":34962
		},
		{
			"buffer":0,
			"byteLength":1728,
			"byteOffset":243592,
			"target":34962
		},
		{
			"buffer":0,
			"byteLength":1152,
			"byteOffset":245320,
			"target":34962
		},
		{
			"buffer":0,
			"byteLength":576,
			"byteOffset":246472,
			"target":34963
		},
		{
			"buffer":0,
			"byteLength":288,
			"byteOffset":247048,
			"target":34962
		},
		{
			"buffer":0,
			"byteLength":288,
			"byteOffset":247336,
			"target":34962
		},
		{
			"buffer":0,
			"byteLength":192,
			"byteOffset":247624,
			"target":34962
		},
		{
			"buffer":0,
			"byteLength":72,
			"byteOffset":247816,
			"target":34963
		},
		{
			"buffer":0,
			"byteLength":288,
			"byteOffset":247888,
			"target":34962
		},
		{
			"buffer":0,
			"byteLength":288,
			"byteOffset":248176,
			"target":34962
		},
		{
			"buffer":0,
			"byteLength":192,
			"byteOffset":248464,
			"target":34962
		},
		{
			"buffer":0,
			"byteLength":72,
			"byteOffset":248656,
			"target":34963
		},
		{
			"buffer":0,
			"byteLength":288,
			"byteOffset":248728,
			"target":34962
		},
		{
			"buffer":0,
			"byteLength":288,
			"byteOffset":249016,
			"target":34962
		},
		{
			"buffer":0,
			"byteLength":192,
			"byteOffset":249304,
			"target":34962
		},
		{
			"buffer":0,
			"byteLength":72,
			"byteOffset":249496,
			"target":34963
		},
		{
			"buffer":0,
			"byteLength":288,
			"byteOffset":249568,
			"target":34962
		},
		{
			"buffer":0,
			"byteLength":288,
			"byteOffset":249856,
			"target":34962
		},
		{
			"buffer":0,
			"byteLength":192,
			"byteOffset":250144,
			"target":34962
		},
		{
			"buffer":0,
			"byteLength":72,
			"byteOffset":250336,
			"target":34963
		},
		{
			"buffer":0,
			"byteLength":7008,
			"byteOffset":250408,
			"target":34962
		},
		{
			"buffer":0,
			"byteLength":7008,
			"byteOffset":257416,
			"target":34962
		},
		{
			"buffer":0,
			"byteLength":4672,
			"byteOffset":264424,
			"target":34962
		},
		{
			"buffer":0,
			"byteLength":3216,
			"byteOffset":269096,
			"target":34963
		},
		{
			"buffer":0,
			"byteLength":2640,
			"byteOffset":272312,
			"target":34962
		},
		{
			"buffer":0,
			"byteLength":2640,
			"byteOffset":274952,
			"target":34962
		},
		{
			"buffer":0,
			"byteLength":1760,
			"byteOffset":277592,
			"target":34962
		},
		{
			"buffer":0,
			"byteLength":1056,
			"byteOffset":279352,
			"target":34963
		},
		{
			"buffer":0,
			"byteLength":16544,
			"byteOffset":280408,
			"target":34962
		},
		{
			"buffer":0,
			"byteLength":12408,
			"byteOffset":296952,
			"target":34962
		},
		{
			"buffer":0,
			"byteLength":12408,
			"byteOffset":309360,
			"target":34962
		},
		{
			"buffer":0,
			"byteLength":8272,
			"byteOffset":321768,
			"target":34962
		},
		{
			"buffer":0,
			"byteLength":3804,
			"byteOffset":330040,
			"target":34963
		},
		{
			"buffer":0,
			"byteLength":212194,
			"byteOffset":333844
		},
		{
			"buffer":0,
			"byteLength":512,
			"byteOffset":546040,
			"target":34962
		},
		{
			"buffer":0,
			"byteLength":384,
			"byteOffset":546552,
			"target":34962
		},
		{
			"buffer":0,
			"byteLength":384,
			"byteOffset":546936,
			"target":34962
		},
		{
			"buffer":0,
			"byteLength":256,
			"byteOffset":547320,
			"target":34962
		},
		{
			"buffer":0,
			"byteLength":96,
			"byteOffset":547576,
			"target":34963
		},
		{
			"buffer":0,
			"byteLength":1024,
			"byteOffset":547672,
			"target":34962
		},
		{
			"buffer":0,
			"byteLength":768,
			"byteOffset":548696,
			"target":34962
		},
		{
			"buffer":0,
			"byteLength":768,
			"byteOffset":549464,
			"target":34962
		},
		{
			"buffer":0,
			"byteLength":512,
			"byteOffset":550232,
			"target":34962
		},
		{
			"buffer":0,
			"byteLength":288,
			"byteOffset":550744,
			"target":34963
		},
		{
			"buffer":0,
			"byteLength":31372,
			"byteOffset":551032
		},
		{
			"buffer":0,
			"byteLength":8640,
			"byteOffset":582404,
			"target":34962
		},
		{
			"buffer":0,
			"byteLength":6480,
			"byteOffset":591044,
			"target":34962
		},
		{
			"buffer":0,
			"byteLength":6480,
			"byteOffset":597524,
			"target":34962
		},
		{
			"buffer":0,
			"byteLength":4320,
			"byteOffset":604004,
			"target":34962
		},
		{
			"buffer":0,
			"byteLength":2004,
			"byteOffset":608324,
			"target":34963
		},
		{
			"buffer":0,
			"byteLength":12358,
			"byteOffset":610328
		},
		{
			"buffer":0,
			"byteLength":416,
			"byteOffset":622688,
			"target":34962
		},
		{
			"buffer":0,
			"byteLength":312,
			"byteOffset":623104,
			"target":34962
		},
		{
			"buffer":0,
			"byteLength":312,
			"byteOffset":623416,
			"target":34962
		},
		{
			"buffer":0,
			"byteLength":208,
			"byteOffset":623728,
			"target":34962
		},
		{
			"buffer":0,
			"byteLength":72,
			"byteOffset":623936,
			"target":34963
		},
		{
			"buffer":0,
			"byteLength":473,
			"byteOffset":624008
		},
		{
			"buffer":0,
			"byteLength":512,
			"byteOffset":624484,
			"target":34962
		},
		{
			"buffer":0,
			"byteLength":384,
			"byteOffset":624996,
			"target":34962
		},
		{
			"buffer":0,
			"byteLength":384,
			"byteOffset":625380,
			"target":34962
		},
		{
			"buffer":0,
			"byteLength":256,
			"byteOffset":625764,
			"target":34962
		},
		{
			"buffer":0,
			"byteLength":156,
			"byteOffset":626020,
			"target":34963
		},
		{
			"buffer":0,
			"byteLength":23965,
			"byteOffset":626176
		},
		{
			"buffer":0,
			"byteLength":128,
			"byteOffset":650144,
			"target":34962
		},
		{
			"buffer":0,
			"byteLength":96,
			"byteOffset":650272,
			"target":34962
		},
		{
			"buffer":0,
			"byteLength":96,
			"byteOffset":650368,
			"target":34962
		},
		{
			"buffer":0,
			"byteLength":64,
			"byteOffset":650464,
			"target":34962
		},
		{
			"buffer":0,
			"byteLength":24,
			"byteOffset":650528,
			"target":34963
		},
		{
			"buffer":0,
			"byteLength":24736,
			"byteOffset":650552,
			"target":34962
		},
		{
			"buffer":0,
			"byteLength":18552,
			"byteOffset":675288,
			"target":34962
		},
		{
			"buffer":0,
			"byteLength":18552,
			"byteOffset":693840,
			"target":34962
		},
		{
			"buffer":0,
			"byteLength":12368,
			"byteOffset":712392,
			"target":34962
		},
		{
			"buffer":0,
			"byteLength":3816,
			"byteOffset":724760,
			"target":34963
		},
		{
			"buffer":0,
			"byteLength":21516,
			"byteOffset":728576
		}
	],
	"samplers":[
		{
			"magFilter":9729,
			"minFilter":9987
		},
		{
			"magFilter":9729,
			"minFilter":9987,
			"wrapS":33071,
			"wrapT":33071
		}
	],
	"buffers":[
		{
			"byteLength":750092,
			"uri":"data:application/octet-stream;base64,"
		}
	]
}
