{
	"asset":{
		"generator":"Khronos glTF Blender I/O v3.6.28",
		"version":"2.0"
	},
	"extensionsUsed":[
		"KHR_materials_specular",
		"KHR_materials_ior"
	],
	"scene":0,
	"scenes":[
		{
			"name":"Scene",
			"nodes":[
				0
			]
		}
	],
	"nodes":[
		{
			"mesh":0,
			"name":"room"
		}
	],
	"materials":[
		{
			"doubleSided":true,
			"extensions":{
				"KHR_materials_specular":{
					"specularColorFactor":[
						0.2291647978203437,
						0.2291647978203437,
						0.2291647978203437
					]
				},
				"KHR_materials_ior":{
					"ior":1.4500000476837158
				}
			},
			"name":"kiosk",
			"pbrMetallicRoughness":{
				"baseColorTexture":{
					"index":0
				},
				"metallicFactor":0
			}
		},
		{
			"doubleSided":true,
			"extensions":{
				"KHR_materials_specular":{
					"specularColorFactor":[
						0,
						0,
						0
					]
				},
				"KHR_materials_ior":{
					"ior":1.4500000476837158
				}
			},
			"name":"arbeitstex",
			"pbrMetallicRoughness":{
				"baseColorTexture":{
					"index":1
				},
				"metallicFactor":0
			}
		},
		{
			"doubleSided":true,
			"extensions":{
				"KHR_materials_specular":{
					"specularColorFactor":[
						0.14945523225434698,
						0.14945523225434698,
						0.14945523225434698
					]
				},
				"KHR_materials_ior":{
					"ior":1.4500000476837158
				}
			},
			"name":"tiles",
			"pbrMetallicRoughness":{
				"baseColorFactor":[
					0.5,
					0.5,
					0.5,
					1
				],
				"baseColorTexture":{
					"index":2
				},
				"metallicFactor":0,
				"roughnessFactor":0.9033613204956055
			}
		},
		{
			"doubleSided":true,
			"name":"metal",
			"pbrMetallicRoughness":{
				"baseColorTexture":{
					"index":3
				},
				"metallicFactor":0,
				"roughnessFactor":0.5
			}
		},
		{
			"alphaMode":"BLEND",
			"doubleSided":true,
			"emissiveFactor":[
				0.42935624718666077,
				1,
				0.41678187251091003
			],
			"name":"glow",
			"pbrMetallicRoughness":{
				"baseColorFactor":[
					0.800000011920929,
					0.800000011920929,
					0.800000011920929,
					1
				],
				"baseColorTexture":{
					"index":4
				},
				"metallicFactor":0,
				"roughnessFactor":0.5
			}
		},
		{
			"alphaCutoff":0.5,
			"alphaMode":"MASK",
			"doubleSided":true,
			"extensions":{
				"KHR_materials_specular":{
					"specularColorFactor":[
						0,
						0,
						0
					]
				},
				"KHR_materials_ior":{
					"ior":1.4500000476837158
				}
			},
			"name":"plants",
			"pbrMetallicRoughness":{
				"baseColorTexture":{
					"index":5
				},
				"metallicFactor":0
			}
		},
		{
			"doubleSided":true,
			"emissiveFactor":[
				1,
				1,
				1
			],
			"name":"Material.001",
			"pbrMetallicRoughness":{
				"baseColorFactor":[
					0,
					0,
					0,
					1
				]
			}
		}
	],
	"meshes":[
		{
			"name":"Cube.003",
			"primitives":[
				{
					"attributes":{
						"COLOR_0":0,
						"POSITION":1,
						"NORMAL":2,
						"TEXCOORD_0":3
					},
					"indices":4,
					"material":0
				},
				{
					"attributes":{
						"COLOR_0":5,
						"POSITION":6,
						"NORMAL":7,
						"TEXCOORD_0":8
					},
					"indices":9,
					"material":1
				},
				{
					"attributes":{
						"COLOR_0":10,
						"POSITION":11,
						"NORMAL":12,
						"TEXCOORD_0":13
					},
					"indices":14,
					"material":2
				},
				{
					"attributes":{
						"COLOR_0":15,
						"POSITION":16,
						"NORMAL":17,
						"TEXCOORD_0":18
					},
					"indices":19,
					"material":3
				},
				{
					"attributes":{
						"COLOR_0":20,
						"POSITION":21,
						"NORMAL":22,
						"TEXCOORD_0":23
					},
					"indices":24,
					"material":4
				},
				{
					"attributes":{
						"COLOR_0":25,
						"POSITION":26,
						"NORMAL":27,
						"TEXCOORD_0":28
					},
					"indices":29,
					"material":5
				},
				{
					"attributes":{
						"COLOR_0":30,
						"POSITION":31,
						"NORMAL":32,
						"TEXCOORD_0":33
					},
					"indices":34,
					"material":6
				}
			]
		}
	],
	"textures":[
		{
			"sampler":0,
			"source":0
		},
		{
			"sampler":0,
			"source":1
		},
		{
			"sampler":0,
			"source":2
		},
		{
			"sampler":0,
			"source":3
		},
		{
			"sampler":0,
			"source":4
		},
		{
			"sampler":0,
			"source":5
		}
	],
	"images":[
		{
			"bufferView":5,
			"mimeType":"image/png",
			"name":"kiosktex"
		},
		{
			"bufferView":11,
			"mimeType":"image/png",
			"name":"arbeitstex"
		},
		{
			"bufferView":17,
			"mimeType":"image/png",
			"name":"tiles0"
		},
		{
			"bufferView":23,
			"mimeType":"image/png",
			"name":"metalleude"
		},
		{
			"bufferView":29,
			"mimeType":"image/png",
			"name":"glow"
		},
		{
			"bufferView":35,
			"mimeType":"image/png",
			"name":"plant"
		}
	],
	"accessors":[
		{
			"bufferView":0,
			"componentType":5126,
			"count":1034,
			"type":"VEC4"
		},
		{
			"bufferView":1,
			"componentType":5126,
			"count":1034,
			"max":[
				2.7683417797088623,
				8.09226131439209,
				6.972811698913574
			],
			"min":[
				-2.7683417797088623,
				0,
				-7.504446506500244
			],
			"type":"VEC3"
		},
		{
			"bufferView":2,
			"componentType":5126,
			"count":1034,
			"type":"VEC3"
		},
		{
			"bufferView":3,
			"componentType":5126,
			"count":1034,
			"type":"VEC2"
		},
		{
			"bufferView":4,
			"componentType":5123,
			"count":1902,
			"type":"SCALAR"
		},
		{
			"bufferView":6,
			"componentType":5126,
			"count":104,
			"type":"VEC4"
		},
		{
			"bufferView":7,
			"componentType":5126,
			"count":104,
			"max":[
				2.7398152351379395,
				6.577172756195068,
				1.7880122661590576
			],
			"min":[
				-1.3815234899520874,
				2.0264174938201904,
				-3.7380738258361816
			],
			"type":"VEC3"
		},
		{
			"bufferView":8,
			"componentType":5126,
			"count":104,
			"type":"VEC3"
		},
		{
			"bufferView":9,
			"componentType":5126,
			"count":104,
			"type":"VEC2"
		},
		{
			"bufferView":10,
			"componentType":5123,
			"count":156,
			"type":"SCALAR"
		},
		{
			"bufferView":12,
			"componentType":5126,
			"count":64,
			"type":"VEC4"
		},
		{
			"bufferView":13,
			"componentType":5126,
			"count":64,
			"max":[
				2.7683417797088623,
				2.5951666831970215,
				6.015388488769531
			],
			"min":[
				-2.7683417797088623,
				-0.12171891331672668,
				-4
			],
			"type":"VEC3"
		},
		{
			"bufferView":14,
			"componentType":5126,
			"count":64,
			"type":"VEC3"
		},
		{
			"bufferView":15,
			"componentType":5126,
			"count":64,
			"type":"VEC2"
		},
		{
			"bufferView":16,
			"componentType":5123,
			"count":144,
			"type":"SCALAR"
		},
		{
			"bufferView":18,
			"componentType":5126,
			"count":542,
			"type":"VEC4"
		},
		{
			"bufferView":19,
			"componentType":5126,
			"count":542,
			"max":[
				2.7605838775634766,
				5.6781535148620605,
				-3.2607436180114746
			],
			"min":[
				-2.791067361831665,
				-0.334261417388916,
				-3.8122353553771973
			],
			"type":"VEC3"
		},
		{
			"bufferView":20,
			"componentType":5126,
			"count":542,
			"type":"VEC3"
		},
		{
			"bufferView":21,
			"componentType":5126,
			"count":542,
			"type":"VEC2"
		},
		{
			"bufferView":22,
			"componentType":5123,
			"count":1002,
			"type":"SCALAR"
		},
		{
			"bufferView":24,
			"componentType":5126,
			"count":26,
			"type":"VEC4"
		},
		{
			"bufferView":25,
			"componentType":5126,
			"count":26,
			"max":[
				2.687516689300537,
				7.867610454559326,
				1.7270727157592773
			],
			"min":[
				-2.6225645542144775,
				4.2786407470703125,
				-5.54946231842041
			],
			"type":"VEC3"
		},
		{
			"bufferView":26,
			"componentType":5126,
			"count":26,
			"type":"VEC3"
		},
		{
			"bufferView":27,
			"componentType":5126,
			"count":26,
			"type":"VEC2"
		},
		{
			"bufferView":28,
			"componentType":5123,
			"count":36,
			"type":"SCALAR"
		},
		{
			"bufferView":30,
			"componentType":5126,
			"count":32,
			"type":"VEC4"
		},
		{
			"bufferView":31,
			"componentType":5126,
			"count":32,
			"max":[
				2.54276967048645,
				4.72078800201416,
				1.1037770509719849
			],
			"min":[
				1.5453962087631226,
				2.710162401199341,
				0.10640370845794678
			],
			"type":"VEC3"
		},
		{
			"bufferView":32,
			"componentType":5126,
			"count":32,
			"type":"VEC3"
		},
		{
			"bufferView":33,
			"componentType":5126,
			"count":32,
			"type":"VEC2"
		},
		{
			"bufferView":34,
			"componentType":5123,
			"count":78,
			"type":"SCALAR"
		},
		{
			"bufferView":36,
			"componentType":5126,
			"count":8,
			"type":"VEC4"
		},
		{
			"bufferView":37,
			"componentType":5126,
			"count":8,
			"max":[
				2.2933661937713623,
				7.871026992797852,
				1.6228654384613037
			],
			"min":[
				-2.2284140586853027,
				7.871026992797852,
				0.8077906966209412
			],
			"type":"VEC3"
		},
		{
			"bufferView":38,
			"componentType":5126,
			"count":8,
			"type":"VEC3"
		},
		{
			"bufferView":39,
			"componentType":5126,
			"count":8,
			"type":"VEC2"
		},
		{
			"bufferView":40,
			"componentType":5123,
			"count":12,
			"type":"SCALAR"
		}
	],
	"bufferViews":[
		{
			"buffer":0,
			"byteLength":16544,
			"byteOffset":0,
			"target":34962
		},
		{
			"buffer":0,
			"byteLength":12408,
			"byteOffset":16544,
			"target":34962
		},
		{
			"buffer":0,
			"byteLength":12408,
			"byteOffset":28952,
			"target":34962
		},
		{
			"buffer":0,
			"byteLength":8272,
			"byteOffset":41360,
			"target":34962
		},
		{
			"buffer":0,
			"byteLength":3804,
			"byteOffset":49632,
			"target":34963
		},
		{
			"buffer":0,
			"byteLength":205577,
			"byteOffset":53436
		},
		{
			"buffer":0,
			"byteLength":1664,
			"byteOffset":259016,
			"target":34962
		},
		{
			"buffer":0,
			"byteLength":1248,
			"byteOffset":260680,
			"target":34962
		},
		{
			"buffer":0,
			"byteLength":1248,
			"byteOffset":261928,
			"target":34962
		},
		{
			"buffer":0,
			"byteLength":832,
			"byteOffset":263176,
			"target":34962
		},
		{
			"buffer":0,
			"byteLength":312,
			"byteOffset":264008,
			"target":34963
		},
		{
			"buffer":0,
			"byteLength":202656,
			"byteOffset":264320
		},
		{
			"buffer":0,
			"byteLength":1024,
			"byteOffset":466976,
			"target":34962
		},
		{
			"buffer":0,
			"byteLength":768,
			"byteOffset":468000,
			"target":34962
		},
		{
			"buffer":0,
			"byteLength":768,
			"byteOffset":468768,
			"target":34962
		},
		{
			"buffer":0,
			"byteLength":512,
			"byteOffset":469536,
			"target":34962
		},
		{
			"buffer":0,
			"byteLength":288,
			"byteOffset":470048,
			"target":34963
		},
		{
			"buffer":0,
			"byteLength":31372,
			"byteOffset":470336
		},
		{
			"buffer":0,
			"byteLength":8672,
			"byteOffset":501708,
			"target":34962
		},
		{
			"buffer":0,
			"byteLength":6504,
			"byteOffset":510380,
			"target":34962
		},
		{
			"buffer":0,
			"byteLength":6504,
			"byteOffset":516884,
			"target":34962
		},
		{
			"buffer":0,
			"byteLength":4336,
			"byteOffset":523388,
			"target":34962
		},
		{
			"buffer":0,
			"byteLength":2004,
			"byteOffset":527724,
			"target":34963
		},
		{
			"buffer":0,
			"byteLength":12358,
			"byteOffset":529728
		},
		{
			"buffer":0,
			"byteLength":416,
			"byteOffset":542088,
			"target":34962
		},
		{
			"buffer":0,
			"byteLength":312,
			"byteOffset":542504,
			"target":34962
		},
		{
			"buffer":0,
			"byteLength":312,
			"byteOffset":542816,
			"target":34962
		},
		{
			"buffer":0,
			"byteLength":208,
			"byteOffset":543128,
			"target":34962
		},
		{
			"buffer":0,
			"byteLength":72,
			"byteOffset":543336,
			"target":34963
		},
		{
			"buffer":0,
			"byteLength":473,
			"byteOffset":543408
		},
		{
			"buffer":0,
			"byteLength":512,
			"byteOffset":543884,
			"target":34962
		},
		{
			"buffer":0,
			"byteLength":384,
			"byteOffset":544396,
			"target":34962
		},
		{
			"buffer":0,
			"byteLength":384,
			"byteOffset":544780,
			"target":34962
		},
		{
			"buffer":0,
			"byteLength":256,
			"byteOffset":545164,
			"target":34962
		},
		{
			"buffer":0,
			"byteLength":156,
			"byteOffset":545420,
			"target":34963
		},
		{
			"buffer":0,
			"byteLength":23965,
			"byteOffset":545576
		},
		{
			"buffer":0,
			"byteLength":128,
			"byteOffset":569544,
			"target":34962
		},
		{
			"buffer":0,
			"byteLength":96,
			"byteOffset":569672,
			"target":34962
		},
		{
			"buffer":0,
			"byteLength":96,
			"byteOffset":569768,
			"target":34962
		},
		{
			"buffer":0,
			"byteLength":64,
			"byteOffset":569864,
			"target":34962
		},
		{
			"buffer":0,
			"byteLength":24,
			"byteOffset":569928,
			"target":34963
		}
	],
	"samplers":[
		{
			"magFilter":9729,
			"minFilter":9987
		}
	],
	"buffers":[
		{
			"byteLength":569952,
			"uri":"data:application/octet-stream;base64,"
		}
	]
}
